<?xml version="1.0" encoding="UTF-8" standalone="no"?>
<!-- Created with Inkscape (http://www.inkscape.org/) -->

<svg
   width="335.0498"
   height="322.82239"
   viewBox="0 0 335.0498 322.82239"
   version="1.1"
   id="svg1"
   xml:space="preserve"
   inkscape:export-filename="bitmap.svg"
   inkscape:export-xdpi="96"
   inkscape:export-ydpi="96"
   inkscape:version="1.4.2 (ebf0e94, 2025-05-08)"
   sodipodi:docname="favicon.svg"
   xmlns:inkscape="http://www.inkscape.org/namespaces/inkscape"
   xmlns:sodipodi="http://sodipodi.sourceforge.net/DTD/sodipodi-0.dtd"
   xmlns="http://www.w3.org/2000/svg"
   xmlns:svg="http://www.w3.org/2000/svg"><sodipodi:namedview
     id="namedview1"
     pagecolor="#ffffff"
     bordercolor="#000000"
     borderopacity="0.25"
     inkscape:showpageshadow="2"
     inkscape:pageopacity="0.0"
     inkscape:pagecheckerboard="0"
     inkscape:deskcolor="#d1d1d1"
     inkscape:document-units="px"
     inkscape:zoom="0.78124997"
     inkscape:cx="-35.840001"
     inkscape:cy="43.520002"
     inkscape:window-width="1920"
     inkscape:window-height="1011"
     inkscape:window-x="0"
     inkscape:window-y="0"
     inkscape:window-maximized="1"
     inkscape:current-layer="layer1"><inkscape:page
       x="0"
       y="0"
       width="335.0498"
       height="322.82239"
       id="page2"
       margin="0"
       bleed="0" /></sodipodi:namedview><defs
     id="defs1" /><g
     inkscape:label="Layer 1"
     inkscape:groupmode="layer"
     id="layer1"
     transform="translate(-88.475091,-94.588813)"><path
       style="fill:#f8bfd0;fill-opacity:1;stroke:#ff73e0;stroke-width:2.37211;stroke-opacity:0.993366"
       d="m 211.04738,190.0012 -10.92434,-9.15861 c -24.07561,-9.27367 -34.80405,-5.20013 -50.47845,-6.07259 -28.17101,15.57679 -25.97123,23.16128 -28.08577,31.88113 l 5.89631,11.6545 c -12.2546,4.95267 -16.80247,7.29029 -17.12521,28.90995 5.46794,19.46551 12.96369,26.01464 24.66992,33.39927 7.43434,4.6898 25.8906,5.00485 25.8906,5.00485 l 4.31052,-2.45276 c -18.18152,15.90894 -16.29087,16.78847 -20.29692,27.26137 -4.00606,10.47288 -3.43137,21.46486 -1.33206,33.99485 1.35423,11.25069 7.82126,17.95668 15.56103,23.53131 6.63638,4.19949 12.22419,1.05903 18.21779,0.75908 -0.43264,6.67191 -0.98503,13.30961 8.34982,22.77223 11.09553,7.87138 20.18935,3.73254 29.98345,3.79538 33.51801,-9.99447 24.80561,-10.98201 39.85141,-29.98345 l -2.85732,-20.59467 3.20989,15.9021 c 10.06616,15.54509 23.24787,16.66178 36.84209,24.44511 13.42073,1.60862 22.26977,5.79366 32.11219,2.39268 9.25884,-9.05795 13.50259,-14.36953 13.69629,-21.58408 7.38703,3.09534 17.43571,1.65369 26.25405,-4.55445 6.18902,-9.5535 13.72827,-14.52488 12.32671,-26.15513 1.64516,-5.58199 3.0885,-12.62222 -1.73285,-24.09261 -6.49685,-15.45653 -7.70172,-18.43755 -30.14606,-26.92017 39.73584,12.69114 32.44591,-2.54542 37.89255,-7.47423 21.7794,-19.70876 16.14391,-27.66099 18.52432,-37.37092 -2.00769,-19.02414 -9.19023,-16.88927 -14.42242,-21.72573 1.65789,-6.06077 5.30046,-11.79079 3.03631,-18.50524 -3.66385,-14.66666 -13.67322,-17.54884 -22.01317,-23.53131 2.13642,4.13955 -48.50023,-18.82303 -62.95238,20.82099 0,0 9.58575,-14.17654 10.1967,-22.33913 1.04568,-13.97094 0.96597,-21.70045 -11.56635,-40.40725 -10.94057,-14.92099 -14.04701,-14.61839 -22.59201,-17.28242 -16.6309,-3.07477 -21.70953,5.81181 -23.64247,8.17354 -1.60355,-2.04444 -7.92765,-7.48529 -18.39129,-8.55307 -3.33727,-0.34056 -22.51036,2.26513 -33.8737,20.11547 -6.72388,10.56238 -9.17317,20.83688 -8.84052,36.11919 0.0542,2.49462 3.527,8.66621 3.527,8.66621 z"
       id="path1"
       sodipodi:nodetypes="ccccccacczcccccccccccccscscccccacccssscc" /><path
       sodipodi:type="spiral"
       style="fill:none;fill-rule:evenodd;stroke:#dc4b87;stroke-opacity:1"
       id="path2"
       sodipodi:cx="159.29703"
       sodipodi:cy="158.84447"
       sodipodi:expansion="1"
       sodipodi:revolution="5.9254012"
       sodipodi:radius="23.097706"
       sodipodi:argument="-36.263905"
       sodipodi:t0="0.050436921"
       d="m 158.14912,158.64577 c -0.31887,-0.96891 0.62337,-1.81046 1.51283,-1.90945 1.50756,-0.16777 2.66764,1.22076 2.70347,2.63928 0.0514,2.0331 -1.82179,3.53795 -3.76575,3.4975 -2.5565,-0.0532 -4.41373,-2.42386 -4.29151,-4.8922 0.15248,-3.07944 3.02635,-5.29235 6.01866,-5.08554 3.60226,0.24896 6.17261,3.62909 5.87956,7.14511 -0.34382,4.12509 -4.23198,7.05393 -8.27158,6.67359 -4.64792,-0.43762 -7.93595,-4.83497 -7.46761,-9.39803 0.53072,-5.1708 5.43803,-8.81848 10.52449,-8.26164 5.69369,0.62332 9.70136,6.04114 9.05566,11.65095 -0.71554,6.2166 -6.64429,10.58452 -12.7774,9.84968 -6.73954,-0.8075 -11.4679,-7.24748 -10.64371,-13.90386 0.89924,-7.26249 7.85069,-12.35144 15.03032,-11.43773 7.78546,0.99081 13.23513,8.45392 12.23176,16.15678 -1.08225,8.30843 -9.05718,14.11891 -17.28324,13.02578 -8.83142,-1.17358 -15.00279,-9.66044 -13.8198,-18.4097 1.26481,-9.35441 10.26371,-15.88675 19.53615,-14.61382 9.87742,1.35597 16.77077,10.867 15.40785,20.66261 -1.44707,10.40042 -11.4703,17.65484 -21.78907,16.20187 -10.92344,-1.53811 -18.53896,-12.0736 -16.9959,-22.91553 1.62911,-11.44646 12.67692,-19.42312 24.04199,-17.78992 11.96948,1.72006 20.30732,13.28023 18.58394,25.16845 -0.87492,6.03538 -4.22941,11.55563 -9.14927,15.15153"
       transform="matrix(1.2324606,0,0,1.2324606,52.49845,62.143722)" /></g></svg>
