<?xml version="1.0" encoding="UTF-8" standalone="no"?>
<!-- Created with Inkscape (http://www.inkscape.org/) -->

<svg
   width="966.32391"
   height="537.21002"
   viewBox="0 0 966.32391 537.21003"
   version="1.1"
   id="svg1"
   sodipodi:docname="ribbon.svg"
   inkscape:version="1.4.2 (ebf0e94, 2025-05-08)"
   xmlns:inkscape="http://www.inkscape.org/namespaces/inkscape"
   xmlns:sodipodi="http://sodipodi.sourceforge.net/DTD/sodipodi-0.dtd"
   xmlns:xlink="http://www.w3.org/1999/xlink"
   xmlns="http://www.w3.org/2000/svg"
   xmlns:svg="http://www.w3.org/2000/svg">
  <sodipodi:namedview
     id="namedview1"
     pagecolor="#ffffff"
     bordercolor="#000000"
     borderopacity="0.25"
     inkscape:showpageshadow="2"
     inkscape:pageopacity="0.0"
     inkscape:pagecheckerboard="0"
     inkscape:deskcolor="#d1d1d1"
     inkscape:document-units="px"
     inkscape:zoom="0.13888889"
     inkscape:cx="2912.4"
     inkscape:cy="-432"
     inkscape:window-width="1920"
     inkscape:window-height="1011"
     inkscape:window-x="0"
     inkscape:window-y="0"
     inkscape:window-maximized="1"
     inkscape:current-layer="layer5">
    <inkscape:page
       x="0"
       y="0"
       width="966.32391"
       height="537.21002"
       id="page1"
       margin="0"
       bleed="0" />
  </sodipodi:namedview>
  <defs
     id="defs1">
    <linearGradient
       id="linearGradient6"
       inkscape:collect="always">
      <stop
         style="stop-color:#c188a8;stop-opacity:1;"
         offset="0.02157235"
         id="stop7" />
      <stop
         style="stop-color:#fad6e0;stop-opacity:1;"
         offset="0.26223487"
         id="stop8" />
    </linearGradient>
    <linearGradient
       id="linearGradient4"
       inkscape:collect="always">
      <stop
         style="stop-color:#fce9da;stop-opacity:1;"
         offset="0.43918401"
         id="stop5" />
      <stop
         style="stop-color:#ffceec;stop-opacity:1;"
         offset="1"
         id="stop6" />
    </linearGradient>
    <radialGradient
       inkscape:collect="always"
       xlink:href="#linearGradient4"
       id="radialGradient6"
       cx="127.17874"
       cy="581.79663"
       fx="127.17874"
       fy="581.79663"
       r="478.85522"
       gradientTransform="matrix(0.96816123,0.25032746,-0.214261,0.82867132,137.87929,-72.640898)"
       gradientUnits="userSpaceOnUse" />
    <linearGradient
       inkscape:collect="always"
       xlink:href="#linearGradient6"
       id="linearGradient8"
       x1="802.95056"
       y1="111.20499"
       x2="853.66229"
       y2="183.62878"
       gradientUnits="userSpaceOnUse" />
  </defs>
  <g
     inkscape:label="ribbon"
     inkscape:groupmode="layer"
     id="layer1"
     style="display:inline"
     sodipodi:insensitive="true"
     transform="translate(3.6209027,11.374175)">
    <path
       style="display:inline;opacity:1;fill:url(#radialGradient6);fill-opacity:1;stroke:#000000;stroke-width:5;stroke-dasharray:none;stroke-opacity:1"
       d="M 0.30883121,445.77286 C 146.86492,393.4314 337.83241,307.30836 497.88035,216.76106 688.10348,109.14211 836.22448,0 836.22448,0 h 119.61299 c 0,0 -117.72223,98.840294 -401.55489,270.66724 C 514.40456,291.69383 333.14497,389.69697 195.47731,449.33887 91.477297,494.39491 0,522.45 0,522.45 Z"
       id="path1"
       sodipodi:nodetypes="cscccscc"
       inkscape:label="ribbon-bg" />
    <path
       style="opacity:1;fill:none;fill-opacity:1;stroke:#000000;stroke-width:3.746;stroke-dasharray:none;stroke-opacity:1"
       d="m 278.50412,363.5933 c -1.83975,-1.16744 -6.78545,-3.96708 -8.33265,-4.7813 -3.10255,-0.9381 -2.41368,-1.191 -5.54625,-1.91571 -3.81168,0.15418 -8.42307,0.30141 -11.89538,2.32567 -2.57888,2.11713 -5.19599,5.00317 -4.98543,8.57639 -0.7689,5.20603 3.61328,9.31366 7.7711,11.60654 3.75617,1.9745 7.83137,3.27087 11.79081,4.73894 4.43891,1.45084 15.79795,4.28308 16.92631,4.34684 3.72096,0.21024 5.61973,-0.18092 7.16063,-2.0228 5.49322,-5.92602 8.36422,-12.54106 11.40213,-19.89192 2.04753,-4.96014 3.71587,-11.6687 2.42053,-17.19882 -1.28931,-3.57887 -5.01617,-4.19417 -9.24329,-5.82085 -4.00214,-1.54012 -6.11456,-1.46218 -9.49903,0.30962 -0.95876,0.50192 -3.28877,1.65888 -3.60269,2.18486 -7.6708,12.85292 -3.74924,17.56879 -4.36679,17.54254 z"
       id="path8"
       sodipodi:nodetypes="cccccccszccsssc"
       inkscape:label="heart" />
    <path
       style="opacity:1;fill:#000000;fill-opacity:1;stroke:#000000;stroke-width:3.7276;stroke-dasharray:none;stroke-opacity:1"
       d="m 379.10345,330.25802 c 0.0209,-3.03589 -5.75391,-3.93401 -5.05789,-0.27967 0.6681,2.2154 3.04203,4.01456 5.57478,5.00148 1.87969,-1.31515 3.80114,-2.73468 4.48298,-5.39752 0.0717,-4.98166 -3.14416,-4.02008 -4.28422,-1.26223 -0.36586,0.49406 -0.68391,1.02027 -0.99721,1.54785"
       id="path14"
       sodipodi:nodetypes="cccccc"
       inkscape:label="heart-filled" />
    <ellipse
       style="opacity:1;fill:none;fill-opacity:1;stroke:#000000;stroke-width:1.16898;stroke-dasharray:none;stroke-opacity:1"
       id="path15"
       cx="415.9223"
       cy="290.6731"
       rx="7.9618359"
       ry="8.5436373"
       inkscape:label="circle" />
    <g
       id="layer4"
       inkscape:label="hash"
       inkscape:groupmode="layer">
      <path
         style="opacity:1;fill:none;fill-opacity:1;stroke:#000000;stroke-width:2.646;stroke-dasharray:none;stroke-opacity:1"
         d="m 96.732208,429.88557 c 0.898426,11.27234 0.723103,22.59148 0.636408,33.88809"
         id="path10"
         inkscape:label="line-left" />
      <path
         style="opacity:1;fill:none;fill-opacity:1;stroke:#000000;stroke-width:2.646;stroke-dasharray:none;stroke-opacity:1"
         d="m 109.93743,427.33998 c 1.4281,10.65568 1.26757,21.50964 -0.31856,32.138"
         id="path11"
         inkscape:label="line-right" />
      <path
         style="opacity:1;fill:none;fill-opacity:1;stroke:#000000;stroke-width:2.646;stroke-dasharray:none;stroke-opacity:1"
         d="M 85.595276,447.54556 C 101.48438,440.34436 104.98,440.29213 121.56102,435.36547"
         id="path12"
         sodipodi:nodetypes="cc"
         inkscape:label="line-top" />
      <path
         style="opacity:1;fill:none;fill-opacity:1;stroke:#000000;stroke-width:2.646;stroke-dasharray:none;stroke-opacity:1"
         d="m 87.525,456.075 c 15.67744,-6.42658 20.20643,-7.4734 36.59501,-9.56561"
         id="path13"
         sodipodi:nodetypes="cc"
         inkscape:label="line-bottom" />
    </g>
    <path
       sodipodi:type="spiral"
       style="fill:none;fill-rule:evenodd;stroke:#000000"
       id="path16"
       sodipodi:cx="848.95239"
       sodipodi:cy="34.365391"
       sodipodi:expansion="1"
       sodipodi:revolution="3"
       sodipodi:radius="18.553976"
       sodipodi:argument="-18.309137"
       sodipodi:t0="0"
       d="m 848.95239,34.365391 c 0.7977,0.478617 -0.25161,1.311413 -0.79549,1.325826 -1.47389,0.03906 -2.14552,-1.693411 -1.85616,-2.916814 0.51759,-2.188381 3.06296,-3.065936 5.03813,-2.38649 2.89865,0.997114 4.00759,4.448909 2.91683,7.159454 -1.45382,3.612728 -5.84039,4.957923 -9.28078,3.447154 -4.32937,-1.901149 -5.91267,-7.234434 -3.97748,-11.402094 2.34377,-5.047594 8.62991,-6.869974 13.52341,-4.507818 5.76682,2.783719 7.82887,10.026279 5.03815,15.644733 -3.22199,6.486728 -11.42324,8.788825 -17.76605,5.568483 -7.20711,-3.659157 -9.74953,-12.820622 -6.09882,-19.887374 4.09555,-7.927827 14.21831,-10.71077 22.0087,-6.629146 8.6488,4.531376 11.67242,15.616224 7.15947,24.130013"
       inkscape:label="fish-cake" />
    <g
       id="layer3"
       inkscape:label="ribbon-end"
       inkscape:groupmode="layer">
      <path
         style="fill:url(#linearGradient8);stroke:#000000;stroke-width:5;stroke-dasharray:none;stroke-opacity:1"
         d="m 786.20962,124.6784 c 10.66472,16.77177 21.29307,32.08222 43.91133,62.45065 l 3.52279,-28.97201 32.57864,4.22315 C 850.353,144.44628 831.6752,124.55618 819.41141,102.41116"
         id="path6-5"
         sodipodi:nodetypes="ccccc"
         inkscape:label="path6" />
    </g>
  </g>
  <g
     inkscape:groupmode="layer"
     id="layer5"
     inkscape:label="speech-bubble"
     transform="translate(-94.384102,52.103526)"
     style="display:inline">
    <path
       style="opacity:1;fill:#eed7f4;fill-opacity:1;stroke:#000000;stroke-width:1.01472;stroke-dasharray:none;stroke-opacity:1"
       d="m 97.881399,-50.44282 c -5.034959,50.62494102 -1.408478,101.747654 -2.431147,152.582 0.09128,51.43274 0.175387,102.8689 -0.558141,154.29738 6.052999,33.50657 58.049189,37.76122 64.287489,1.8963 17.90775,-0.90518 40.20843,8.48463 60.24788,-1.79583 18.41618,0.1609 40.22475,19.68627 50.70701,-8.46463 6.42067,-18.3493 19.698,-38.79735 37.32329,-20.97236 28.67464,8.62274 54.49877,-11.78384 76.72451,-27.95168 15.90295,-8.07083 37.45129,-18.43751 35.76874,-41.03387 10.15896,33.95157 55.98331,19.11806 65.51617,-8.02828 3.37698,-19.26012 11.88109,-44.8784 32.17909,-25.70423 31.25971,12.27999 57.87095,-7.71364 82.60465,-22.43559 26.54304,6.32534 43.02494,-12.594621 41.83024,-39.755385 26.06736,5.302906 57.41249,-24.563507 46.76636,-54.4568781 -4.45188,-9.1099598 -25.58266,-31.9584759 -8.17697,-17.1877219 24.26476,-16.100551 0.97529,-41.241039 -20.79265,-36.692251 -25.86487,-4.811245 -49.87167,-5.344311 -76.51273,-1.966008 -30.21117,1.518662 -59.01894,-0.0046 -90.85336,-0.986116 -27.92337,5.031162 -42.97019,-3.563972 -69.2169,1.087161 -14.12364,-3.813326 -16.24725,-4.785905 -34.62812,-1.979233 -38.62037,-1.117471 -78.6214,0.640213 -118.94711,3.478772 -27.08274,-1.105038 -55.15176,-2.289036 -78.28107,-1.197271 -30.66048,-4.253641 -63.03011,-0.803376 -93.557231,-2.734279 z"
       id="path38"
       sodipodi:nodetypes="ccccccccccccccccccccccc" />
    <path
       style="font-size:26.6667px;font-family:Comfortaa;-inkscape-font-specification:'Comfortaa, Normal';text-align:center;text-anchor:middle;white-space:pre;stroke:#000000;stroke-width:0;stroke-dasharray:none"
       d="m 146.41255,170.44619 c 0.77226,-0.3177 1.30901,-0.93352 1.26107,-1.87317 l 0.0174,-9.14939 18.72731,-7.70359 6.40202,6.50872 c 0.65553,0.63328 1.4901,0.74145 2.26235,0.42377 1.35147,-0.55593 1.69275,-2.33289 0.59731,-3.34955 L 147.56307,127.422 c -0.69525,-0.72981 -1.50139,-0.90609 -2.32192,-0.56857 -0.86879,0.35739 -1.31757,1.0499 -1.29804,2.05767 l -0.33173,39.52708 c -0.0346,1.42506 1.35318,2.60363 2.80117,2.00801 z m 1.29966,-14.81232 0.0505,-22.65062 15.9739,16.0589 z m 50.73124,-6.59094 c 1.11011,-0.45666 1.56471,-1.5466 1.10806,-2.65672 l -4.70555,-11.4391 7.77087,-3.19659 c 7.14339,-2.93849 10.0982,-10.02306 7.17958,-17.11819 -2.95834,-7.19167 -10.06278,-10.19474 -17.20618,-7.25625 l -9.65324,3.97093 c -1.11013,0.45665 -1.5647,1.54658 -1.10806,2.65671 l 13.9578,33.93115 c 0.45667,1.11012 1.54661,1.5647 2.65672,1.10806 z m -5.08659,-17.71578 -7.04839,-17.13451 7.77085,-3.19659 c 4.97143,-2.04503 9.96411,0.0773 12.04885,5.14523 2.04502,4.97143 -0.0291,9.94425 -5.00044,11.98928 z m 43.41265,2.23226 c 7.7226,-3.17674 11.07517,-11.21499 7.89843,-18.93759 -3.24494,-7.75098 -11.23486,-11.12344 -18.95745,-7.9467 -7.77085,3.1966 -11.07515,11.21499 -7.87854,18.98586 3.17672,7.7226 11.1667,11.09503 18.93756,7.89843 z m -1.38981,-3.37865 c -5.59889,2.30315 -11.54525,-0.21692 -13.92781,-6.00887 -2.4024,-5.84021 0.0496,-11.81499 5.64842,-14.11813 5.64715,-2.32299 11.49698,0.23679 13.8994,6.077 2.38255,5.79195 0.0271,11.72702 -5.62001,14.05 z m 32.27738,-9.60932 1.01357,-0.41695 c 1.15839,-0.47651 1.70951,-1.60615 1.2727,-2.668 -0.45664,-1.11013 -1.49831,-1.58457 -2.5119,-1.16761 l -1.30318,0.53607 c -2.9925,1.23097 -6.11753,-0.19233 -7.46763,-3.47444 l -5.3012,-12.88708 5.4541,-2.24358 c 1.01359,-0.41694 1.41136,-1.37064 1.03411,-2.2877 -0.39708,-0.96532 -1.35078,-1.36308 -2.36437,-0.94613 l -5.4541,2.24357 -3.07746,-7.481259 c -0.45666,-1.110124 -1.54657,-1.564716 -2.65671,-1.108053 -1.06185,0.436794 -1.51643,1.526727 -1.05978,2.636852 l 3.07747,7.48126 -3.13731,1.29056 c -1.01357,0.41695 -1.41134,1.37063 -1.01424,2.33595 0.37723,0.91707 1.33091,1.31484 2.3445,0.89788 l 3.13731,-1.29055 5.30119,12.88708 c 2.20387,5.35755 7.52856,7.73831 12.71293,5.66213 z m 20.80541,-8.27627 c 4.24741,-1.74722 7.07321,-5.16696 7.97449,-9.14946 l 1.21113,2.94424 c 0.43681,1.06186 1.52675,1.51644 2.63687,1.05978 1.06186,-0.43679 1.56471,-1.54659 1.1279,-2.60844 l -4.66583,-11.34256 c -3.20522,-7.654446 -11.33139,-11.083722 -18.95747,-7.946684 -7.67431,3.156881 -11.03544,11.311534 -7.87856,18.985864 3.15688,7.67432 11.11848,11.11487 18.55147,8.05726 z m -1.00371,-3.53747 c -5.55062,2.28329 -11.5651,-0.26521 -13.92779,-6.00889 -2.36271,-5.74368 0.0978,-11.834846 5.64842,-14.118128 5.55061,-2.283284 11.5367,0.333321 13.8994,6.076998 2.3627,5.74368 -0.0694,11.76673 -5.62003,14.05002 z m 32.27739,-9.60934 1.0136,-0.41695 c 1.15838,-0.47651 1.70951,-1.60615 1.2727,-2.66801 -0.45666,-1.11012 -1.49832,-1.58456 -2.51191,-1.16762 l -1.30319,0.53608 c -2.99251,1.23099 -6.11752,-0.19233 -7.46762,-3.47444 l -5.30119,-12.887077 5.45408,-2.243571 c 1.0136,-0.41695 1.41136,-1.370641 1.03411,-2.287696 -0.39708,-0.965327 -1.35078,-1.363091 -2.36437,-0.946143 l -5.45408,2.243573 -3.07746,-7.481265 c -0.45667,-1.110121 -1.54661,-1.564704 -2.65672,-1.108051 -1.06186,0.436803 -1.51645,1.526739 -1.05979,2.63686 l 3.07747,7.481265 -3.13731,1.290548 c -1.01359,0.416949 -1.41137,1.370647 -1.01427,2.335971 0.37724,0.917058 1.33094,1.314815 2.34454,0.897866 l 3.1373,-1.290547 5.30118,12.887077 c 2.20387,5.35755 7.52859,7.73831 12.71293,5.66213 z m 21.19154,-8.435108 c 7.72258,-3.176741 11.07515,-11.214999 7.89841,-18.937594 -3.24493,-7.750979 -11.23485,-11.123431 -18.95745,-7.946691 -7.77086,3.196595 -11.07515,11.214997 -7.87855,18.985859 3.17674,7.722596 11.16672,11.095024 18.93759,7.898426 z m -1.38984,-3.378635 c -5.59888,2.303136 -11.54525,-0.216939 -13.9278,-6.008883 -2.40241,-5.840213 0.0496,-11.814992 5.64842,-14.118129 5.64717,-2.322999 11.49698,0.236793 13.8994,6.077006 2.38254,5.791947 0.0272,11.727007 -5.62002,14.050006 z m 38.69675,-12.249984 12.30789,-5.062928 c 6.80555,-2.799508 9.72612,-9.418523 7.04575,-15.934466 -2.02517,-4.923153 -6.25141,-6.965711 -11.02362,-6.357037 2.44512,-2.698826 3.32074,-6.332161 1.89121,-9.807328 -2.28329,-5.550617 -8.44839,-7.642113 -14.24034,-5.259556 l -11.72869,4.824673 c -1.1101,0.456653 -1.56471,1.546588 -1.10804,2.656711 l 13.95781,33.93115 c 0.47649,1.158391 1.64312,1.525003 2.89803,1.008781 z m -7.39281,-22.636185 -4.9835,-12.114821 9.8463,-4.050343 c 3.86131,-1.588372 7.49463,-0.712754 9.083,3.148544 1.60822,3.909562 -0.23817,7.377904 -4.0995,8.966278 z m 7.54476,18.341164 -6.05566,-14.721195 10.66684,-4.387874 c 4.63358,-1.90605 9.06722,-0.456721 10.87401,3.935505 1.90603,4.633558 -0.18479,8.879642 -4.81834,10.785689 z m 36.48211,-10.774641 0.62747,-0.258112 c 1.30318,-0.536073 1.85431,-1.665715 1.4175,-2.727575 -0.45666,-1.110121 -1.38195,-1.576003 -2.34726,-1.178914 l -1.20665,0.496368 c -1.73759,0.71477 -3.7867,-0.699657 -4.91843,-3.450829 L 397.12417,25.384162 c -0.43679,-1.061856 -1.47847,-1.536295 -2.58857,-1.079641 -1.06187,0.436803 -1.51646,1.526738 -1.07966,2.588595 l 11.31714,27.511745 c 2.00532,4.874886 6.18605,7.21833 10.0956,5.61011 z m 18.58517,-7.362963 c 7.7226,-3.176742 11.07516,-11.214998 7.89842,-18.937596 -3.24493,-7.750974 -11.23486,-11.123428 -18.95745,-7.946689 -7.77086,3.196595 -11.07516,11.215 -7.87856,18.98586 3.17674,7.722596 11.16673,11.095021 18.93759,7.898425 z m -1.38982,-3.378636 c -5.59889,2.303139 -11.54524,-0.216938 -13.9278,-6.008884 -2.40242,-5.840213 0.0495,-11.814991 5.64842,-14.118127 5.64714,-2.322989 11.49698,0.236791 13.89939,6.077006 2.38256,5.791945 0.0271,11.727019 -5.62001,14.050005 z m 33.67985,-9.904082 c 4.53702,-1.866333 7.27209,-5.643799 7.69379,-10.106216 l 0.91332,2.220245 c 2.60094,6.322877 0.12913,12.249393 -5.27669,14.473112 -3.86128,1.588367 -7.42103,1.303246 -10.27628,-0.287468 -0.91672,-0.58227 -2.15453,-0.298827 -2.78509,0.637759 -0.58225,0.916719 -0.26184,1.97002 0.73156,2.464317 3.90823,2.229804 8.60342,2.668617 13.67138,0.583877 7.7226,-3.17674 10.85951,-11.46489 7.66291,-19.235752 l -4.05035,-9.846306 c -3.30449,-7.895775 -11.13832,-11.163139 -18.95746,-7.946685 -7.67432,3.156882 -11.13473,11.070205 -7.87856,18.985862 3.23629,7.867396 10.9254,11.194291 18.55147,8.057255 z m -1.0037,-3.537468 c -5.74369,2.362703 -11.50554,-0.120406 -13.9278,-6.008885 -2.42227,-5.888478 -0.0953,-11.755426 5.64841,-14.118128 5.69543,-2.342848 11.47715,0.188522 13.89941,6.077001 2.42227,5.888478 0.0754,11.707165 -5.62002,14.050012 z M 506.22253,5.110866 c 2.12371,-0.873606 3.4755,-2.389044 4.09508,-4.4497858 0.28992,-1.0786302 -0.35971,-2.1093526 -1.47538,-2.2147654 -1.01911,-0.1451257 -1.65237,0.5104085 -2.03028,1.5123682 -0.32108,0.8657174 -0.95437,1.521253 -1.96796,1.938203 -1.06184,0.436797 -1.84815,0.30878 -3.42073,0.05273 -1.31998,-0.190657 -3.09695,-0.531927 -5.12412,0.301966 -2.31678,0.953021 -4.06052,3.024726 -4.79955,5.755377 -0.22182,1.107046 0.4081,2.089476 1.40726,2.186352 1.01908,0.145132 1.89371,-0.609682 2.13537,-1.668463 0.4888,-1.55548 1.33226,-2.523211 2.49065,-2.99972 0.82052,-0.337526 1.66364,-0.345748 3.35263,-0.08115 1.38808,0.219067 3.26156,0.520638 5.33703,-0.333115 z"
       id="text32"
       aria-label="A Potato Blog ~" />
  </g>
</svg>
